<?xml version="1.0" standalone="no"?>
<!DOCTYPE svg PUBLIC "-//W3C//DTD SVG 20010904//EN"
 "http://www.w3.org/TR/2001/REC-SVG-20010904/DTD/svg10.dtd">
<svg version="1.0" xmlns="http://www.w3.org/2000/svg"
 width="100.000000pt" height="100.000000pt" viewBox="0 0 100.000000 100.000000"
 preserveAspectRatio="xMidYMid meet">

<g transform="translate(0.000000,100.000000) scale(0.100000,-0.100000)"
fill="#000000" stroke="none">
<path d="M383 986 c-185 -45 -337 -205 -374 -394 -22 -118 6 -267 69 -357 l28
-40 92 -3 92 -3 0 -69 c0 -38 5 -72 10 -75 6 -4 10 25 10 81 l0 87 -90 -5
c-85 -5 -90 -4 -90 15 0 17 5 19 31 13 17 -3 62 -6 100 -6 l68 0 3 -102 3
-103 50 -11 c206 -48 420 40 537 220 21 33 38 65 38 73 0 10 -19 13 -75 13
-43 0 -75 4 -75 10 0 6 35 10 84 10 l83 0 12 57 c34 170 -15 330 -138 454
-126 126 -299 176 -468 135z m-133 -226 c0 -5 -7 -10 -15 -10 -8 0 -15 5 -15
10 0 6 7 10 15 10 8 0 15 -4 15 -10z m120 0 c0 -5 -9 -10 -20 -10 -11 0 -20 5
-20 10 0 6 9 10 20 10 11 0 20 -4 20 -10z m40 0 c0 -5 -4 -10 -10 -10 -5 0
-10 5 -10 10 0 6 5 10 10 10 6 0 10 -4 10 -10z m110 0 c0 -5 -9 -10 -20 -10
-11 0 -20 5 -20 10 0 6 9 10 20 10 11 0 20 -4 20 -10z m50 0 c0 -5 -4 -10 -10
-10 -5 0 -10 5 -10 10 0 6 5 10 10 10 6 0 10 -4 10 -10z m40 0 c0 -5 -4 -10
-10 -10 -5 0 -10 5 -10 10 0 6 5 10 10 10 6 0 10 -4 10 -10z m70 0 c0 -5 -9
-10 -20 -10 -11 0 -20 5 -20 10 0 6 9 10 20 10 11 0 20 -4 20 -10z m80 0 c0
-5 -7 -10 -15 -10 -8 0 -15 5 -15 10 0 6 7 10 15 10 8 0 15 -4 15 -10z m-380
-70 c0 -5 -7 -10 -15 -10 -8 0 -15 5 -15 10 0 6 7 10 15 10 8 0 15 -4 15 -10z
m90 0 c0 -5 -7 -10 -15 -10 -8 0 -15 5 -15 10 0 6 7 10 15 10 8 0 15 -4 15
-10z m50 0 c0 -5 -7 -10 -15 -10 -8 0 -15 5 -15 10 0 6 7 10 15 10 8 0 15 -4
15 -10z m50 0 c0 -5 -9 -10 -20 -10 -11 0 -20 5 -20 10 0 6 9 10 20 10 11 0
20 -4 20 -10z m60 0 c0 -5 -7 -10 -15 -10 -8 0 -15 5 -15 10 0 6 7 10 15 10 8
0 15 -4 15 -10z m150 0 c0 -5 -9 -10 -20 -10 -11 0 -20 5 -20 10 0 6 9 10 20
10 11 0 20 -4 20 -10z m60 0 c0 -5 -7 -10 -15 -10 -8 0 -15 5 -15 10 0 6 7 10
15 10 8 0 15 -4 15 -10z m-700 -80 c0 -5 -7 -10 -15 -10 -8 0 -15 5 -15 10 0
6 7 10 15 10 8 0 15 -4 15 -10z m50 0 c0 -5 -7 -10 -15 -10 -8 0 -15 5 -15 10
0 6 7 10 15 10 8 0 15 -4 15 -10z m50 0 c0 -5 -9 -10 -20 -10 -11 0 -20 5 -20
10 0 6 9 10 20 10 11 0 20 -4 20 -10z m110 0 c0 -5 -7 -10 -15 -10 -8 0 -15 5
-15 10 0 6 7 10 15 10 8 0 15 -4 15 -10z m40 0 c0 -5 -7 -10 -15 -10 -8 0 -15
5 -15 10 0 6 7 10 15 10 8 0 15 -4 15 -10z m120 0 c0 -5 -9 -10 -20 -10 -11 0
-20 5 -20 10 0 6 9 10 20 10 11 0 20 -4 20 -10z m170 0 c0 -5 -7 -10 -15 -10
-8 0 -15 5 -15 10 0 6 7 10 15 10 8 0 15 -4 15 -10z m50 0 c0 -5 -7 -10 -15
-10 -8 0 -15 5 -15 10 0 6 7 10 15 10 8 0 15 -4 15 -10z m50 0 c0 -5 -7 -10
-15 -10 -8 0 -15 5 -15 10 0 6 7 10 15 10 8 0 15 -4 15 -10z m90 0 c0 -5 -9
-10 -20 -10 -11 0 -20 5 -20 10 0 6 9 10 20 10 11 0 20 -4 20 -10z m-470 -175
l0 -95 60 0 c33 0 60 -4 60 -10 0 -6 -30 -10 -70 -10 l-70 0 0 105 c0 63 4
105 10 105 6 0 10 -38 10 -95z m-30 -40 l0 -95 90 0 c99 0 106 -4 92 -55 -8
-29 -10 -30 -80 -33 l-72 -3 0 -65 c0 -41 -4 -63 -10 -59 -5 3 -10 37 -10 76
l0 69 75 0 c43 0 75 4 75 10 0 6 -33 10 -80 10 l-80 0 0 -100 c0 -60 -4 -100
-10 -100 -6 0 -10 42 -10 105 l0 105 89 0 c50 0 93 4 96 10 4 6 -28 10 -89 10
l-96 0 0 105 c0 63 4 105 10 105 6 0 10 -38 10 -95z m-40 -40 l0 -105 -102 0
c-57 0 -113 -3 -125 -6 -17 -5 -23 -2 -23 10 0 10 9 16 25 16 18 0 25 5 25 19
0 18 5 19 70 14 l70 -6 0 62 c0 34 4 61 10 61 6 0 10 -30 10 -70 l0 -69 -62
-4 -63 -3 73 -2 72 -2 0 95 c0 57 4 95 10 95 6 0 10 -42 10 -105z m-70 -5 l0
-30 -67 0 c-38 0 -78 -3 -90 -6 -18 -5 -23 -2 -23 13 0 18 6 19 80 15 76 -4
80 -4 80 17 0 11 5 21 10 21 6 0 10 -13 10 -30z m370 -89 c0 -22 -5 -43 -10
-46 -6 -4 -10 11 -8 39 2 56 18 62 18 7z m78 6 c4 -35 -14 -59 -42 -55 -25 4
-33 37 -16 68 17 31 54 23 58 -13z m222 23 c0 -6 -38 -10 -95 -10 -57 0 -95
-4 -95 -10 0 -5 9 -10 21 -10 34 0 21 -44 -13 -48 -16 -2 -28 1 -28 7 0 6 9
11 20 11 11 0 20 5 20 10 0 6 -9 10 -21 10 -15 0 -19 4 -15 16 3 9 6 20 6 25
0 5 45 9 100 9 60 0 100 -4 100 -10z m-20 -30 c0 -5 -25 -10 -55 -10 -30 0
-55 5 -55 10 0 6 25 10 55 10 30 0 55 -4 55 -10z m-20 -40 c0 -5 -22 -10 -50
-10 -27 0 -50 5 -50 10 0 6 23 10 50 10 28 0 50 -4 50 -10z m-400 -40 c0 -5
-11 -10 -25 -10 -20 0 -25 -5 -25 -25 0 -14 -4 -25 -10 -25 -5 0 -10 16 -10
35 0 33 2 35 35 35 19 0 35 -4 35 -10z m380 0 c0 -5 -20 -10 -45 -10 -25 0
-45 5 -45 10 0 6 20 10 45 10 25 0 45 -4 45 -10z"/>
<path d="M660 255 c0 -16 6 -25 15 -25 8 0 15 4 15 9 0 5 3 16 6 25 4 12 0 16
-15 16 -16 0 -21 -6 -21 -25z"/>
<path d="M151 144 c24 -26 102 -84 113 -84 3 0 6 25 6 55 l0 55 -72 0 -71 0
24 -26z"/>
</g>
</svg>
